<svg width="142" height="142" viewBox="0 0 142 142" fill="none" xmlns="http://www.w3.org/2000/svg">
<g clip-path="url(#clip0)">
<path d="M132.318 58.0909H83.9087V9.68182C83.9087 4.33744 79.5713 0 74.2269 0H67.7727C62.4283 0 58.0909 4.33744 58.0909 9.68182V58.0909H9.68182C4.33744 58.0909 0 62.4283 0 67.7727V74.2269C0 79.5713 4.33744 83.9087 9.68182 83.9087H58.0909V132.318C58.0909 137.662 62.4283 142 67.7727 142H74.2269C79.5713 142 83.9087 137.662 83.9087 132.318V83.9087H132.318C137.662 83.9087 142 79.5713 142 74.2269V67.7727C142 62.4283 137.662 58.0909 132.318 58.0909V58.0909Z" fill="#000F08"/>
</g>
<defs>
<clipPath id="clip0">
<rect width="142" height="142" fill="white"/>
</clipPath>
</defs>
</svg>
