<svg width="143" height="141" viewBox="0 0 143 141" fill="none" xmlns="http://www.w3.org/2000/svg">
<g clip-path="url(#clip0)">
<path d="M143 5.875C143 2.632 140.331 -1.1668e-07 137.042 -2.60447e-07L5.95833 -5.99028e-06C2.66933 -6.13405e-06 -3.92975e-06 2.63199 -4.0715e-06 5.87499L-5.35552e-06 35.25C-5.49728e-06 38.493 2.66933 41.125 5.95833 41.125L137.042 41.125C140.331 41.125 143 38.493 143 35.25L143 5.875Z" fill="#000F08"/>
<path d="M143 135.125L143 105.75C143 102.507 140.331 99.875 137.042 99.875L5.95833 99.875C2.66933 99.875 -3.92975e-06 102.507 -4.0715e-06 105.75L-5.35552e-06 135.125C-5.49728e-06 138.368 2.66933 141 5.95833 141L137.042 141C140.331 141 143 138.368 143 135.125Z" fill="#000F08"/>
<path d="M137.042 49.9375L5.95833 49.9375C2.66933 49.9375 -3.92975e-06 52.5695 -4.0715e-06 55.8125L-5.35552e-06 85.1875C-5.49728e-06 88.4305 2.66933 91.0625 5.95833 91.0625L137.042 91.0625C140.331 91.0625 143 88.4305 143 85.1875L143 55.8125C143 52.5695 140.331 49.9375 137.042 49.9375Z" fill="#000F08"/>
</g>
<defs>
<clipPath id="clip0">
<rect width="141" height="143" fill="white" transform="translate(143) rotate(90)"/>
</clipPath>
</defs>
</svg>
