<svg width="143" height="143" viewBox="0 0 143 143" fill="none" xmlns="http://www.w3.org/2000/svg">
<g clip-path="url(#clip0)">
<path d="M60.4999 0H5.50011C2.46243 0 0 2.46243 0 5.50011V60.5003C0 63.5379 2.46243 66.0004 5.50011 66.0004H60.5003C63.5379 66.0004 66.0004 63.5379 66.0004 60.5003V5.50011C66.0001 2.46243 63.5376 0 60.4999 0Z" fill="#000F08"/>
<path d="M137.5 0H82.5001C79.4624 0 77 2.46243 77 5.50011V60.5003C77 63.5379 79.4624 66.0004 82.5001 66.0004H137.5C140.538 66.0004 143 63.5379 143 60.5003V5.50011C143 2.46243 140.538 0 137.5 0Z" fill="#000F08"/>
<path d="M60.4999 77H5.50011C2.46243 77 0 79.4624 0 82.5001V137.5C0 140.538 2.46243 143 5.50011 143H60.5003C63.5379 143 66.0004 140.538 66.0004 137.5V82.5001C66.0001 79.4624 63.5376 77 60.4999 77Z" fill="#000F08"/>
<path d="M137.5 77H82.5001C79.4624 77 77 79.4624 77 82.5001V137.5C77 140.538 79.4624 143 82.5001 143H137.5C140.538 143 143 140.538 143 137.5V82.5001C143 79.4624 140.538 77 137.5 77Z" fill="#000F08"/>
</g>
<defs>
<clipPath id="clip0">
<rect width="143" height="143" fill="white"/>
</clipPath>
</defs>
</svg>
