<svg width="358" height="358" viewBox="0 0 358 358" fill="none" xmlns="http://www.w3.org/2000/svg">
<g clip-path="url(#clip0)">
<path d="M308.752 150.752C297.706 150.752 288.752 159.706 288.752 170.752V266.416C288.752 266.865 287.901 267.752 287.353 267.752H135.752V226.478C135.752 220.346 131.958 216.063 126.526 216.063C124.447 216.063 122.351 216.712 120.297 217.992L24.2759 277.781C20.7619 279.969 18.7479 283.26 18.7469 286.809C18.7469 290.342 20.7469 293.613 24.2349 295.787L120.295 355.573C122.352 356.854 124.447 357.504 126.526 357.504C131.958 357.504 135.752 353.221 135.752 347.088V307.752H287.353C309.793 307.752 328.752 288.822 328.752 266.416V170.752C328.752 159.706 319.798 150.752 308.752 150.752Z" fill="#000F08"/>
<path d="M333.269 61.717L237.209 1.931C235.152 0.65 233.057 0 230.978 0C225.546 0 221.752 4.283 221.752 10.416V49.752H70.151C47.711 49.752 28.752 68.682 28.752 91.088V186.752C28.752 197.798 37.706 206.752 48.752 206.752C59.798 206.752 68.752 197.798 68.752 186.752V91.088C68.752 90.639 69.603 89.752 70.151 89.752H221.752V131.026C221.752 137.158 225.546 141.441 230.978 141.441C233.057 141.441 235.153 140.792 237.207 139.512L333.228 79.723C336.742 77.535 338.756 74.244 338.757 70.695C338.757 67.162 336.757 63.891 333.269 61.717Z" fill="#000F08"/>
</g>
<defs>
<clipPath id="clip0">
<rect width="357.504" height="357.504" fill="white"/>
</clipPath>
</defs>
</svg>
